# xmcd
#
# Track frame offsets:
#	150
#	11897
#	34182
#	54100
#	77132
#	87055
#	106512
#	124670
#	144737
#	157625
#	176180
#	187682
#	199830
#	212965
#	226357
#	242790
#	259850
#	270632
#	281907
#	291775
#
# Disc length: 4062 seconds
#
# Revision: 1
# Processed by: cddbd v1.5.2PL0 Copyright (c) Steve Scherf et al.
# Submitted via: audiograbber 1.83.01
#
DISCID=160fdc14
DTITLE=Pure Prairie League - Bustin' Out/Two Lane Highway
DYEAR=1973
DGENRE=Country Rock
TTITLE0=Jazzman
TTITLE1=Angel #9
TTITLE2=Leave My Heart Alone
TTITLE3=Early Morning Riser
TTITLE4=Falling In And Out Of Love
TTITLE5=Amie
TTITLE6=Boulder Skies
TTITLE7=Angel
TTITLE8=Call Me, Tell Me
TTITLE9=Two Lane Highway
TTITLE10=Kentucky Moonshine
TTITLE11=Runner
TTITLE12=Memories
TTITLE13=Kansas City Southern
TTITLE14=Harvest
TTITLE15=Sister's Keeper
TTITLE16=Just Can't Believe It
TTITLE17=Give Us A Rise
TTITLE18=I'll Change Your Flat Tire, Merle
TTITLE19=Pickin' To Beat The Devil
EXTD=
EXTT0=
EXTT1=
EXTT2=
EXTT3=
EXTT4=
EXTT5=
EXTT6=
EXTT7=
EXTT8=
EXTT9=
EXTT10=
EXTT11=
EXTT12=
EXTT13=
EXTT14=
EXTT15=
EXTT16=
EXTT17=
EXTT18=
EXTT19=
PLAYORDER=
